<?xml version="1.0" encoding="UTF-8" standalone="no"?>
<svg width="60px" height="60px" viewBox="0 0 60 60" version="1.1" xmlns="http://www.w3.org/2000/svg" xmlns:xlink="http://www.w3.org/1999/xlink" xmlns:sketch="http://www.bohemiancoding.com/sketch/ns">
    <!-- Generator: Sketch 3.2.2 (9983) - http://www.bohemiancoding.com/sketch -->
    <title>Scientificresearch</title>
    <desc>Created with Sketch.</desc>
    <defs></defs>
    <g id="stroked" stroke="none" stroke-width="1" fill="none" fill-rule="evenodd" sketch:type="MSPage">
        <g id="Science" sketch:type="MSLayerGroup" transform="translate(-740.000000, -1107.000000)" stroke="#535353" stroke-width="2" stroke-linecap="round" stroke-linejoin="round">
            <g id="Scientificresearch" transform="translate(744.000000, 1111.000000)" sketch:type="MSShapeGroup">
                <path d="M6.1210276,41.4774605 C9.2816866,46.0238764 14.5432878,49 20.5,49 C30.1649831,49 38,41.1649831 38,31.5 C38,21.8350169 30.1649831,14 20.5,14 C10.8350169,14 3,21.8350169 3,31.5 C3,32.3971684 3.06751274,33.2785684 3.19773496,34.1393967" id="Oval-210"></path>
                <path d="M49.8519349,33.7868123 C49.9496127,33.0383748 50,32.2750717 50,31.5 C50,21.8350169 42.1649831,14 32.5,14 C22.8350169,14 15,21.8350169 15,31.5 C15,41.1649831 22.8350169,49 32.5,49 C38.4022244,49 43.6219965,46.0780743 46.7917117,41.6018274" id="Oval-210"></path>
                <path d="M21.8714702,4.51990642 C14.4525755,6.54934313 9,13.3385533 9,21.4012806 C9,31.0662637 16.8350169,38.9012806 26.5,38.9012806 C36.1649831,38.9012806 44,31.0662637 44,21.4012806 C44,13.3389577 38.5479716,6.55002429 31.1296463,4.52021187" id="Oval-210"></path>
                <circle id="Oval-213" cx="4" cy="38" r="4"></circle>
                <circle id="Oval-213" cx="49" cy="38" r="4"></circle>
                <circle id="Oval-213" cx="26.5" cy="4.5" r="4.5"></circle>
            </g>
        </g>
    </g>
</svg>